<svg data-name="Layer 1" xmlns="http://www.w3.org/2000/svg" viewBox="0 0 1500 1500">
  <rect width="1500" height="1500" rx="750" fill="#0b4f71"/>
  <path d="M930.54 630.7a50.06 50.06 0 1 0 50.06-50.06" fill="#fff" stroke="#fff" stroke-miterlimit="10"/>
  <path d="M754.17 1171.61a420.94 420.94 0 0 0 280.5-106.85 27.4 27.4 0 1 0-36.47-40.89 366.24 366.24 0 0 1-244 92.94c-202.25 0-366.8-164.55-366.8-366.81s164.55-366.81 366.8-366.81a365.82 365.82 0 0 1 247.75 96.3 27.4 27.4 0 1 0 37-40.4 420.51 420.51 0 0 0-284.77-110.7c-232.47 0-421.6 189.14-421.6 421.61s189.12 421.61 421.59 421.61z" fill="#fff"/>
  <path d="M976.32 590.11a274.81 274.81 0 0 0-222.15-113.8c-150.91 0-273.69 122.78-273.69 273.69s122.78 273.69 273.69 273.69a274.77 274.77 0 0 0 226.1-119.42L1187.64 1024a512.44 512.44 0 0 1-433.47 238.74A510.89 510.89 0 0 1 402 1122.6a40.59 40.59 0 1 0-30.64 27.57 554 554 0 0 0 663.64 77.27A556.9 556.9 0 0 0 1233.87 1027a20.54 20.54 0 0 0-7.52-28.08L983.71 858.8a20.54 20.54 0 0 0-28.05 7.5 233.5 233.5 0 0 1-201.49 116.3c-128.25 0-232.59-104.35-232.59-232.6s104.34-232.6 232.59-232.6c82.83 0 150.11 29.6 191.62 101.31" fill="#fff" stroke="#fff" stroke-linecap="round" stroke-linejoin="round" stroke-width="40"/>
  <path d="M264.35 902a512.66 512.66 0 0 1-22.9-152c0-282.72 230-512.73 512.72-512.73a511.14 511.14 0 0 1 348.15 136.29 40.8 40.8 0 1 0 29.82-28.35 551.95 551.95 0 0 0-378-149c-305.38 0-553.82 248.44-553.82 553.82a554 554 0 0 0 24.9 164.68c.1.32.21.64.32 1L254.13 983c-11.12 18.92 12.05 50.86 34.5 50.86a40.63 40.63 0 0 0 40.63-40.63c0-22.44-21.64-38.45-44.08-38.23z" fill="#fff" stroke="#fff" stroke-linecap="round" stroke-linejoin="round" stroke-width="40"/>
</svg>
